{
  "accessors": [
    {
      "bufferView": 3,
      "componentType": 5126,
      "count": 264,
      "max": [
        1.5115123987197876,
        0.1490202099084854,
        0.14951923489570618
      ],
      "min": [
        -0.6524419188499451,
        -0.14082437753677368,
        -0.17102713882923126
      ],
      "type": "VEC3"
    },
    {
      "bufferView": 3,
      "byteOffset": 3168,
      "componentType": 5126,
      "count": 264,
      "max": [
        0.854951798915863,
        1.0,
        1.0
      ],
      "min": [
        -0.9979395866394043,
        -1.0,
        -1.0
      ],
      "type": "VEC3"
    },
    {
      "bufferView": 2,
      "componentType": 5126,
      "count": 264,
      "max": [
        0.9849140644073486,
        0.9836107492446899
      ],
      "min": [
        0.025132570415735245,
        0.022621452808380127
      ],
      "type": "VEC2"
    },
    {
      "bufferView": 1,
      "componentType": 5125,
      "count": 696,
      "type": "SCALAR"
    },
    {
      "bufferView": 5,
      "componentType": 5126,
      "count": 7,
      "max": [
        1.0,
        1.22464870546974e-16,
        1.5767088825668907e-06,
        0.0,
        1.2246468525851679e-16,
        1.0,
        0.0,
        0.0,
        0.0,
        0.0,
        1.0,
        0.0,
        6.73671340933879e-09,
        0.0,
        2.3841750795838834e-09,
        1.0
      ],
      "min": [
        -1.0,
        0.0,
        0.0,
        0.0,
        0.0,
        1.0,
        -1.22464870546974e-16,
        0.0,
        -1.5767088825668907e-06,
        -1.2246468525851679e-16,
        -1.0,
        0.0,
        -0.625,
        -0.00023746490478515625,
        0.0,
        1.0
      ],
      "type": "MAT4"
    },
    {
      "bufferView": 0,
      "componentType": 5123,
      "count": 264,
      "type": "VEC4"
    },
    {
      "bufferView": 4,
      "componentType": 5126,
      "count": 264,
      "max": [
        1.0,
        0.40017062425613403,
        0.0,
        0.0
      ],
      "min": [
        0.599829375743866,
        0.0,
        0.0,
        0.0
      ],
      "type": "VEC4"
    }
  ],
  "asset": {
    "extras": {
      "author": "HoangSa (https://sketchfab.com/reportmeagainhaha)",
      "license": "CC-BY-4.0 (http://creativecommons.org/licenses/by/4.0/)",
      "source": "https://sketchfab.com/3d-models/broomstick-054a599ab98e4700b694eeb425dff0ee",
      "title": "broomstick"
    },
    "generator": "Sketchfab-10.70.0",
    "version": "2.0"
  },
  "bufferViews": [
    {
      "buffer": 0,
      "byteLength": 2112,
      "byteStride": 8,
      "name": "shortBufferViews",
      "target": 34962
    },
    {
      "buffer": 0,
      "byteLength": 2784,
      "byteOffset": 2112,
      "name": "floatBufferViews",
      "target": 34963
    },
    {
      "buffer": 0,
      "byteLength": 2112,
      "byteOffset": 4896,
      "byteStride": 8,
      "name": "floatBufferViews",
      "target": 34962
    },
    {
      "buffer": 0,
      "byteLength": 6336,
      "byteOffset": 7008,
      "byteStride": 12,
      "name": "floatBufferViews",
      "target": 34962
    },
    {
      "buffer": 0,
      "byteLength": 4224,
      "byteOffset": 13344,
      "byteStride": 16,
      "name": "floatBufferViews",
      "target": 34962
    },
    {
      "buffer": 0,
      "byteLength": 448,
      "byteOffset": 17568,
      "byteStride": 64,
      "name": "floatBufferViews"
    }
  ],
  "buffers": [
    {
      "byteLength": 18016,
      "uri": "scene.bin"
    }
  ],
  "extensionsUsed": [
    "KHR_materials_unlit"
  ],
  "images": [
    {
      "uri": "textures/wp_arche_tex00_baseColor.png"
    }
  ],
  "materials": [
    {
      "doubleSided": true,
      "extensions": {
        "KHR_materials_unlit": {}
      },
      "name": "wp_arche_tex00",
      "pbrMetallicRoughness": {
        "baseColorTexture": {
          "index": 0
        },
        "metallicFactor": 0.0
      }
    }
  ],
  "meshes": [
    {
      "name": "wp_arche00_wp_arche_tex00_0",
      "primitives": [
        {
          "attributes": {
            "JOINTS_0": 5,
            "NORMAL": 1,
            "POSITION": 0,
            "TEXCOORD_0": 2,
            "WEIGHTS_0": 6
          },
          "indices": 3,
          "material": 0,
          "mode": 4
        }
      ]
    }
  ],
  "nodes": [
    {
      "children": [
        1
      ],
      "matrix": [
        1.0,
        0.0,
        0.0,
        0.0,
        0.0,
        2.220446049250313e-16,
        -1.0,
        0.0,
        0.0,
        1.0,
        2.220446049250313e-16,
        0.0,
        0.0,
        0.0,
        0.0,
        1.0
      ],
      "name": "Sketchfab_model"
    },
    {
      "children": [
        2
      ],
      "matrix": [
        1.0,
        0.0,
        0.0,
        0.0,
        0.0,
        0.0,
        1.0,
        0.0,
        0.0,
        -1.0,
        0.0,
        0.0,
        0.0,
        0.0,
        0.0,
        1.0
      ],
      "name": "cbfe0dc2ec8247df947c111a4fde9815.fbx"
    },
    {
      "children": [
        3
      ],
      "name": "RootNode"
    },
    {
      "children": [
        4
      ],
      "name": "wp_arche00"
    },
    {
      "children": [
        5
      ],
      "name": "JOINT"
    },
    {
      "children": [
        6,
        13
      ],
      "name": "Object_5"
    },
    {
      "children": [
        7
      ],
      "name": "_rootJoint"
    },
    {
      "children": [
        8
      ],
      "name": "Root_00"
    },
    {
      "children": [
        9,
        11
      ],
      "name": "weapon_a_01"
    },
    {
      "children": [
        10
      ],
      "name": "weapon_a01_02",
      "translation": [
        0.625,
        0.0,
        0.0
      ]
    },
    {
      "name": "weapon_a02_03",
      "translation": [
        0.7749996781349182,
        0.0,
        0.0
      ]
    },
    {
      "children": [
        12
      ],
      "name": "weapon_a03_04",
      "rotation": [
        6.123228968969919e-17,
        1.0,
        6.123228968969919e-17,
        7.883544981268642e-07
      ],
      "translation": [
        6.736709412535902e-09,
        0.00023746490478515625,
        2.38418573772492e-09
      ]
    },
    {
      "name": "weapon_a04_05",
      "rotation": [
        0.0,
        0.0,
        3.714844267242626e-33,
        1.0
      ],
      "translation": [
        0.75,
        1.182556161438697e-06,
        -1.1801475920947269e-06
      ]
    },
    {
      "mesh": 0,
      "name": "Object_13",
      "skin": 0
    }
  ],
  "samplers": [
    {
      "magFilter": 9729,
      "minFilter": 9987,
      "wrapS": 10497,
      "wrapT": 10497
    }
  ],
  "scene": 0,
  "scenes": [
    {
      "name": "Sketchfab_Scene",
      "nodes": [
        0
      ]
    }
  ],
  "skins": [
    {
      "inverseBindMatrices": 4,
      "joints": [
        6,
        7,
        8,
        9,
        10,
        11,
        12
      ],
      "skeleton": 6
    }
  ],
  "textures": [
    {
      "sampler": 0,
      "source": 0
    }
  ]
}
